<mxfile host="app.diagrams.net" modified="2021-06-03T21:55:31.121Z" agent="5.0 (Windows NT 10.0; Win64; x64) AppleWebKit/537.36 (KHTML, like Gecko) Chrome/90.0.4430.212 Safari/537.36" etag="GKBVcfuJQkOa3xPG5MJI" version="14.7.5" type="github">
  <diagram id="R2lEEEUBdFMjLlhIrx00" name="Page-1">
    <mxGraphModel dx="1054" dy="569" grid="0" gridSize="10" guides="1" tooltips="1" connect="1" arrows="1" fold="1" page="1" pageScale="1" pageWidth="1654" pageHeight="1169" math="0" shadow="0" extFonts="Permanent Marker^https://fonts.googleapis.com/css?family=Permanent+Marker">
      <root>
        <mxCell id="0" />
        <mxCell id="1" parent="0" />
        <mxCell id="mw7v7OqiFIPlVH7VP6Rh-54" style="edgeStyle=orthogonalEdgeStyle;orthogonalLoop=1;jettySize=auto;html=1;endArrow=none;endFill=0;" parent="1" source="mw7v7OqiFIPlVH7VP6Rh-3" target="mw7v7OqiFIPlVH7VP6Rh-53" edge="1">
          <mxGeometry relative="1" as="geometry" />
        </mxCell>
        <mxCell id="q3cyNkbLDBH9MtJmj8Bj-30" style="edgeStyle=orthogonalEdgeStyle;orthogonalLoop=1;jettySize=auto;html=1;endArrow=none;endFill=0;" parent="1" source="mw7v7OqiFIPlVH7VP6Rh-3" target="mw7v7OqiFIPlVH7VP6Rh-36" edge="1">
          <mxGeometry relative="1" as="geometry" />
        </mxCell>
        <mxCell id="mw7v7OqiFIPlVH7VP6Rh-3" value="&lt;b&gt;CLIENTE&lt;/b&gt;" style="whiteSpace=wrap;html=1;" parent="1" vertex="1">
          <mxGeometry x="276" y="740" width="120" height="60" as="geometry" />
        </mxCell>
        <mxCell id="q3cyNkbLDBH9MtJmj8Bj-10" value="" style="edgeStyle=orthogonalEdgeStyle;orthogonalLoop=1;jettySize=auto;html=1;endArrow=none;endFill=0;" parent="1" source="mw7v7OqiFIPlVH7VP6Rh-4" target="mw7v7OqiFIPlVH7VP6Rh-32" edge="1">
          <mxGeometry relative="1" as="geometry" />
        </mxCell>
        <mxCell id="mw7v7OqiFIPlVH7VP6Rh-4" value="&lt;b&gt;Lavoratore&lt;/b&gt;" style="whiteSpace=wrap;html=1;" parent="1" vertex="1">
          <mxGeometry x="1189" y="740" width="120" height="60" as="geometry" />
        </mxCell>
        <mxCell id="mw7v7OqiFIPlVH7VP6Rh-11" style="edgeStyle=orthogonalEdgeStyle;orthogonalLoop=1;jettySize=auto;html=1;entryX=0.5;entryY=0;entryDx=0;entryDy=0;endArrow=none;endFill=0;exitX=0.5;exitY=0;exitDx=0;exitDy=0;rounded=0;" parent="1" source="mw7v7OqiFIPlVH7VP6Rh-5" target="mw7v7OqiFIPlVH7VP6Rh-6" edge="1">
          <mxGeometry relative="1" as="geometry">
            <Array as="points">
              <mxPoint x="256" y="860" />
              <mxPoint x="416" y="860" />
            </Array>
          </mxGeometry>
        </mxCell>
        <mxCell id="mw7v7OqiFIPlVH7VP6Rh-5" value="&lt;b&gt;Privato&lt;/b&gt;" style="whiteSpace=wrap;html=1;" parent="1" vertex="1">
          <mxGeometry x="196" y="900" width="120" height="60" as="geometry" />
        </mxCell>
        <mxCell id="mw7v7OqiFIPlVH7VP6Rh-6" value="&lt;b&gt;Azienda&lt;/b&gt;" style="whiteSpace=wrap;html=1;" parent="1" vertex="1">
          <mxGeometry x="356" y="900" width="120" height="60" as="geometry" />
        </mxCell>
        <mxCell id="mw7v7OqiFIPlVH7VP6Rh-14" style="edgeStyle=orthogonalEdgeStyle;orthogonalLoop=1;jettySize=auto;html=1;exitX=0.5;exitY=0;exitDx=0;exitDy=0;entryX=0.5;entryY=0;entryDx=0;entryDy=0;endArrow=none;endFill=0;rounded=0;" parent="1" source="mw7v7OqiFIPlVH7VP6Rh-7" target="mw7v7OqiFIPlVH7VP6Rh-10" edge="1">
          <mxGeometry relative="1" as="geometry">
            <Array as="points">
              <mxPoint x="1249" y="860" />
              <mxPoint x="1409" y="860" />
            </Array>
          </mxGeometry>
        </mxCell>
        <mxCell id="mw7v7OqiFIPlVH7VP6Rh-7" value="&lt;b&gt;Dipendente&lt;/b&gt;" style="whiteSpace=wrap;html=1;" parent="1" vertex="1">
          <mxGeometry x="1189" y="900" width="120" height="60" as="geometry" />
        </mxCell>
        <mxCell id="mw7v7OqiFIPlVH7VP6Rh-13" style="edgeStyle=orthogonalEdgeStyle;orthogonalLoop=1;jettySize=auto;html=1;entryX=0.5;entryY=0;entryDx=0;entryDy=0;endArrow=none;endFill=0;exitX=0.5;exitY=0;exitDx=0;exitDy=0;rounded=0;" parent="1" source="mw7v7OqiFIPlVH7VP6Rh-9" target="mw7v7OqiFIPlVH7VP6Rh-7" edge="1">
          <mxGeometry relative="1" as="geometry">
            <Array as="points">
              <mxPoint x="1109" y="860" />
              <mxPoint x="1269" y="860" />
            </Array>
          </mxGeometry>
        </mxCell>
        <mxCell id="mw7v7OqiFIPlVH7VP6Rh-9" value="&lt;b&gt;Socio&lt;/b&gt;" style="whiteSpace=wrap;html=1;" parent="1" vertex="1">
          <mxGeometry x="1029" y="900" width="120" height="60" as="geometry" />
        </mxCell>
        <mxCell id="mw7v7OqiFIPlVH7VP6Rh-10" value="&lt;b&gt;STAGISTA&lt;/b&gt;" style="whiteSpace=wrap;html=1;" parent="1" vertex="1">
          <mxGeometry x="1349" y="900" width="120" height="60" as="geometry" />
        </mxCell>
        <mxCell id="mw7v7OqiFIPlVH7VP6Rh-12" value="" style="shape=flexArrow;endArrow=classic;html=1;entryX=0.5;entryY=1;entryDx=0;entryDy=0;" parent="1" edge="1">
          <mxGeometry width="50" height="50" relative="1" as="geometry">
            <mxPoint x="336" y="860" as="sourcePoint" />
            <mxPoint x="335.5" y="800" as="targetPoint" />
          </mxGeometry>
        </mxCell>
        <mxCell id="mw7v7OqiFIPlVH7VP6Rh-15" value="" style="shape=flexArrow;endArrow=classic;html=1;entryX=0.5;entryY=1;entryDx=0;entryDy=0;" parent="1" edge="1">
          <mxGeometry width="50" height="50" relative="1" as="geometry">
            <mxPoint x="1249" y="860" as="sourcePoint" />
            <mxPoint x="1248.5" y="800" as="targetPoint" />
          </mxGeometry>
        </mxCell>
        <mxCell id="q3cyNkbLDBH9MtJmj8Bj-5" value="" style="edgeStyle=orthogonalEdgeStyle;orthogonalLoop=1;jettySize=auto;html=1;endArrow=none;endFill=0;exitX=0.5;exitY=0;exitDx=0;exitDy=0;" parent="1" source="q3cyNkbLDBH9MtJmj8Bj-116" target="q3cyNkbLDBH9MtJmj8Bj-2" edge="1">
          <mxGeometry relative="1" as="geometry">
            <mxPoint x="1249" y="450" as="sourcePoint" />
          </mxGeometry>
        </mxCell>
        <mxCell id="q3cyNkbLDBH9MtJmj8Bj-15" value="" style="edgeStyle=orthogonalEdgeStyle;orthogonalLoop=1;jettySize=auto;html=1;endArrow=none;endFill=0;" parent="1" source="mw7v7OqiFIPlVH7VP6Rh-27" target="q3cyNkbLDBH9MtJmj8Bj-4" edge="1">
          <mxGeometry relative="1" as="geometry" />
        </mxCell>
        <mxCell id="mw7v7OqiFIPlVH7VP6Rh-27" value="&lt;b&gt;Impianto Elettrico&lt;/b&gt;" style="whiteSpace=wrap;html=1;" parent="1" vertex="1">
          <mxGeometry x="276" y="310" width="120" height="60" as="geometry" />
        </mxCell>
        <mxCell id="q3cyNkbLDBH9MtJmj8Bj-11" value="" style="edgeStyle=orthogonalEdgeStyle;orthogonalLoop=1;jettySize=auto;html=1;endArrow=none;endFill=0;entryX=0.5;entryY=1;entryDx=0;entryDy=0;" parent="1" source="mw7v7OqiFIPlVH7VP6Rh-32" target="q3cyNkbLDBH9MtJmj8Bj-116" edge="1">
          <mxGeometry relative="1" as="geometry">
            <mxPoint x="1249" y="510" as="targetPoint" />
          </mxGeometry>
        </mxCell>
        <mxCell id="mw7v7OqiFIPlVH7VP6Rh-32" value="&lt;b&gt;MANSIONE&lt;/b&gt;" style="rhombus;whiteSpace=wrap;html=1;" parent="1" vertex="1">
          <mxGeometry x="1189" y="580" width="120" height="80" as="geometry" />
        </mxCell>
        <mxCell id="mw7v7OqiFIPlVH7VP6Rh-37" style="edgeStyle=orthogonalEdgeStyle;orthogonalLoop=1;jettySize=auto;html=1;endArrow=none;endFill=0;" parent="1" source="mw7v7OqiFIPlVH7VP6Rh-36" target="mw7v7OqiFIPlVH7VP6Rh-27" edge="1">
          <mxGeometry relative="1" as="geometry" />
        </mxCell>
        <mxCell id="mw7v7OqiFIPlVH7VP6Rh-36" value="&lt;b&gt;COMMISSIONE&lt;/b&gt;" style="rhombus;whiteSpace=wrap;html=1;" parent="1" vertex="1">
          <mxGeometry x="276" y="520" width="120" height="80" as="geometry" />
        </mxCell>
        <mxCell id="q3cyNkbLDBH9MtJmj8Bj-61" value="" style="edgeStyle=orthogonalEdgeStyle;orthogonalLoop=1;jettySize=auto;html=1;endArrow=none;endFill=0;entryX=0;entryY=0.5;entryDx=0;entryDy=0;" parent="1" source="mw7v7OqiFIPlVH7VP6Rh-40" target="q3cyNkbLDBH9MtJmj8Bj-116" edge="1">
          <mxGeometry relative="1" as="geometry">
            <mxPoint x="1189" y="480" as="targetPoint" />
          </mxGeometry>
        </mxCell>
        <mxCell id="q3cyNkbLDBH9MtJmj8Bj-62" value="" style="edgeStyle=orthogonalEdgeStyle;orthogonalLoop=1;jettySize=auto;html=1;endArrow=none;endFill=0;" parent="1" source="mw7v7OqiFIPlVH7VP6Rh-40" target="q3cyNkbLDBH9MtJmj8Bj-48" edge="1">
          <mxGeometry relative="1" as="geometry" />
        </mxCell>
        <mxCell id="mw7v7OqiFIPlVH7VP6Rh-40" value="&lt;b&gt;UTILIZZO&lt;/b&gt;" style="rhombus;whiteSpace=wrap;html=1;" parent="1" vertex="1">
          <mxGeometry x="989" y="440" width="120" height="80" as="geometry" />
        </mxCell>
        <mxCell id="mw7v7OqiFIPlVH7VP6Rh-55" style="edgeStyle=orthogonalEdgeStyle;orthogonalLoop=1;jettySize=auto;html=1;endArrow=none;endFill=0;" parent="1" source="mw7v7OqiFIPlVH7VP6Rh-43" target="mw7v7OqiFIPlVH7VP6Rh-53" edge="1">
          <mxGeometry relative="1" as="geometry" />
        </mxCell>
        <mxCell id="mw7v7OqiFIPlVH7VP6Rh-57" style="edgeStyle=orthogonalEdgeStyle;orthogonalLoop=1;jettySize=auto;html=1;endArrow=none;endFill=0;rounded=0;" parent="1" source="q3cyNkbLDBH9MtJmj8Bj-49" target="mw7v7OqiFIPlVH7VP6Rh-56" edge="1">
          <mxGeometry relative="1" as="geometry">
            <mxPoint x="889" y="770" as="sourcePoint" />
          </mxGeometry>
        </mxCell>
        <mxCell id="q3cyNkbLDBH9MtJmj8Bj-27" value="" style="edgeStyle=orthogonalEdgeStyle;orthogonalLoop=1;jettySize=auto;html=1;endArrow=none;endFill=0;" parent="1" source="mw7v7OqiFIPlVH7VP6Rh-43" target="mw7v7OqiFIPlVH7VP6Rh-51" edge="1">
          <mxGeometry relative="1" as="geometry" />
        </mxCell>
        <mxCell id="mw7v7OqiFIPlVH7VP6Rh-43" value="&lt;b&gt;Preventivo&lt;/b&gt;" style="whiteSpace=wrap;html=1;" parent="1" vertex="1">
          <mxGeometry x="726" y="740" width="120" height="60" as="geometry" />
        </mxCell>
        <mxCell id="q3cyNkbLDBH9MtJmj8Bj-19" value="" style="edgeStyle=orthogonalEdgeStyle;orthogonalLoop=1;jettySize=auto;html=1;endArrow=none;endFill=0;" parent="1" source="mw7v7OqiFIPlVH7VP6Rh-44" target="q3cyNkbLDBH9MtJmj8Bj-18" edge="1">
          <mxGeometry relative="1" as="geometry" />
        </mxCell>
        <mxCell id="mw7v7OqiFIPlVH7VP6Rh-44" value="&lt;b&gt;MATERIALE&lt;/b&gt;" style="whiteSpace=wrap;html=1;" parent="1" vertex="1">
          <mxGeometry x="602" y="545" width="120" height="60" as="geometry" />
        </mxCell>
        <mxCell id="mw7v7OqiFIPlVH7VP6Rh-45" value="&lt;b&gt;Tipologia&lt;/b&gt;" style="whiteSpace=wrap;html=1;" parent="1" vertex="1">
          <mxGeometry x="1069" y="210" width="120" height="60" as="geometry" />
        </mxCell>
        <mxCell id="q3cyNkbLDBH9MtJmj8Bj-82" value="" style="edgeStyle=orthogonalEdgeStyle;orthogonalLoop=1;jettySize=auto;html=1;endArrow=none;endFill=0;" parent="1" source="mw7v7OqiFIPlVH7VP6Rh-46" target="mw7v7OqiFIPlVH7VP6Rh-44" edge="1">
          <mxGeometry relative="1" as="geometry" />
        </mxCell>
        <mxCell id="q3cyNkbLDBH9MtJmj8Bj-83" value="" style="edgeStyle=orthogonalEdgeStyle;orthogonalLoop=1;jettySize=auto;html=1;endArrow=none;endFill=0;entryX=0.5;entryY=1;entryDx=0;entryDy=0;" parent="1" source="mw7v7OqiFIPlVH7VP6Rh-46" target="q3cyNkbLDBH9MtJmj8Bj-113" edge="1">
          <mxGeometry relative="1" as="geometry">
            <mxPoint x="875.9999999999998" y="493.9999999999999" as="targetPoint" />
          </mxGeometry>
        </mxCell>
        <mxCell id="mw7v7OqiFIPlVH7VP6Rh-46" value="&lt;b&gt;SPECIFICAZIONE&lt;br&gt;&lt;/b&gt;" style="rhombus;whiteSpace=wrap;html=1;" parent="1" vertex="1">
          <mxGeometry x="816" y="535" width="120" height="80" as="geometry" />
        </mxCell>
        <mxCell id="mw7v7OqiFIPlVH7VP6Rh-62" style="edgeStyle=orthogonalEdgeStyle;orthogonalLoop=1;jettySize=auto;html=1;endArrow=none;endFill=0;" parent="1" source="mw7v7OqiFIPlVH7VP6Rh-50" target="mw7v7OqiFIPlVH7VP6Rh-45" edge="1">
          <mxGeometry relative="1" as="geometry" />
        </mxCell>
        <mxCell id="q3cyNkbLDBH9MtJmj8Bj-23" style="edgeStyle=orthogonalEdgeStyle;orthogonalLoop=1;jettySize=auto;html=1;entryX=0.5;entryY=0;entryDx=0;entryDy=0;endArrow=none;endFill=0;rounded=0;" parent="1" source="mw7v7OqiFIPlVH7VP6Rh-50" target="q3cyNkbLDBH9MtJmj8Bj-51" edge="1">
          <mxGeometry relative="1" as="geometry" />
        </mxCell>
        <mxCell id="mw7v7OqiFIPlVH7VP6Rh-50" value="&lt;b&gt;APPARTENENZA&lt;br&gt;&lt;/b&gt;" style="rhombus;whiteSpace=wrap;html=1;" parent="1" vertex="1">
          <mxGeometry x="874" y="200" width="120" height="80" as="geometry" />
        </mxCell>
        <mxCell id="q3cyNkbLDBH9MtJmj8Bj-29" value="" style="edgeStyle=orthogonalEdgeStyle;orthogonalLoop=1;jettySize=auto;html=1;endArrow=none;endFill=0;rounded=0;" parent="1" source="mw7v7OqiFIPlVH7VP6Rh-51" target="mw7v7OqiFIPlVH7VP6Rh-44" edge="1">
          <mxGeometry relative="1" as="geometry" />
        </mxCell>
        <mxCell id="mw7v7OqiFIPlVH7VP6Rh-51" value="&lt;b&gt;MATERIALE IN&lt;br&gt;PREVENTIVO&lt;br&gt;&lt;/b&gt;" style="rhombus;whiteSpace=wrap;html=1;" parent="1" vertex="1">
          <mxGeometry x="726" y="630" width="120" height="80" as="geometry" />
        </mxCell>
        <mxCell id="mw7v7OqiFIPlVH7VP6Rh-53" value="&lt;b&gt;RICHIESTA&lt;/b&gt;" style="rhombus;whiteSpace=wrap;html=1;" parent="1" vertex="1">
          <mxGeometry x="506" y="730" width="120" height="80" as="geometry" />
        </mxCell>
        <mxCell id="gyQU3uvNIS6ujwAqqLgp-1" style="edgeStyle=orthogonalEdgeStyle;rounded=0;orthogonalLoop=1;jettySize=auto;html=1;entryX=0;entryY=0.5;entryDx=0;entryDy=0;endArrow=none;endFill=0;" parent="1" source="mw7v7OqiFIPlVH7VP6Rh-56" target="q3cyNkbLDBH9MtJmj8Bj-54" edge="1">
          <mxGeometry relative="1" as="geometry" />
        </mxCell>
        <mxCell id="mw7v7OqiFIPlVH7VP6Rh-56" value="&lt;b&gt;OFFERTA&lt;/b&gt;" style="rhombus;whiteSpace=wrap;html=1;" parent="1" vertex="1">
          <mxGeometry x="963" y="730" width="120" height="80" as="geometry" />
        </mxCell>
        <mxCell id="q3cyNkbLDBH9MtJmj8Bj-6" value="" style="edgeStyle=orthogonalEdgeStyle;orthogonalLoop=1;jettySize=auto;html=1;endArrow=none;endFill=0;" parent="1" source="q3cyNkbLDBH9MtJmj8Bj-2" target="q3cyNkbLDBH9MtJmj8Bj-51" edge="1">
          <mxGeometry relative="1" as="geometry">
            <mxPoint x="889" y="340" as="targetPoint" />
          </mxGeometry>
        </mxCell>
        <mxCell id="q3cyNkbLDBH9MtJmj8Bj-2" value="&lt;b&gt;REALIZZAZIONE&lt;/b&gt;" style="rhombus;whiteSpace=wrap;html=1;" parent="1" vertex="1">
          <mxGeometry x="1189" y="300" width="120" height="80" as="geometry" />
        </mxCell>
        <mxCell id="q3cyNkbLDBH9MtJmj8Bj-7" value="" style="edgeStyle=orthogonalEdgeStyle;orthogonalLoop=1;jettySize=auto;html=1;endArrow=none;endFill=0;exitX=0.011;exitY=0.498;exitDx=0;exitDy=0;exitPerimeter=0;" parent="1" source="q3cyNkbLDBH9MtJmj8Bj-51" target="q3cyNkbLDBH9MtJmj8Bj-4" edge="1">
          <mxGeometry relative="1" as="geometry" />
        </mxCell>
        <mxCell id="q3cyNkbLDBH9MtJmj8Bj-3" value="&lt;b&gt;Lavoro&lt;/b&gt;" style="whiteSpace=wrap;html=1;" parent="1" vertex="1">
          <mxGeometry x="726" y="310" width="120" height="60" as="geometry" />
        </mxCell>
        <mxCell id="q3cyNkbLDBH9MtJmj8Bj-4" value="&lt;b&gt;COMPOSIZIONE&lt;/b&gt;" style="rhombus;whiteSpace=wrap;html=1;" parent="1" vertex="1">
          <mxGeometry x="506" y="300" width="120" height="80" as="geometry" />
        </mxCell>
        <mxCell id="q3cyNkbLDBH9MtJmj8Bj-21" value="" style="edgeStyle=orthogonalEdgeStyle;orthogonalLoop=1;jettySize=auto;html=1;endArrow=none;endFill=0;" parent="1" source="q3cyNkbLDBH9MtJmj8Bj-18" target="q3cyNkbLDBH9MtJmj8Bj-20" edge="1">
          <mxGeometry relative="1" as="geometry" />
        </mxCell>
        <mxCell id="q3cyNkbLDBH9MtJmj8Bj-18" value="&lt;b&gt;VENDITA&lt;/b&gt;" style="rhombus;whiteSpace=wrap;html=1;" parent="1" vertex="1">
          <mxGeometry x="421" y="535" width="120" height="80" as="geometry" />
        </mxCell>
        <mxCell id="q3cyNkbLDBH9MtJmj8Bj-20" value="&lt;b&gt;FORNITORE&lt;/b&gt;" style="whiteSpace=wrap;html=1;" parent="1" vertex="1">
          <mxGeometry x="421" y="428" width="120" height="60" as="geometry" />
        </mxCell>
        <mxCell id="q3cyNkbLDBH9MtJmj8Bj-33" value="&lt;b&gt;Privato&lt;/b&gt;" style="whiteSpace=wrap;html=1;" parent="1" vertex="1">
          <mxGeometry x="196" y="900" width="120" height="60" as="geometry" />
        </mxCell>
        <mxCell id="q3cyNkbLDBH9MtJmj8Bj-34" value="&lt;b&gt;Azienda&lt;/b&gt;" style="whiteSpace=wrap;html=1;" parent="1" vertex="1">
          <mxGeometry x="356" y="900" width="120" height="60" as="geometry" />
        </mxCell>
        <mxCell id="q3cyNkbLDBH9MtJmj8Bj-35" value="&lt;b&gt;Privato&lt;/b&gt;" style="whiteSpace=wrap;html=1;" parent="1" vertex="1">
          <mxGeometry x="196" y="900" width="120" height="60" as="geometry" />
        </mxCell>
        <mxCell id="q3cyNkbLDBH9MtJmj8Bj-36" value="&lt;b&gt;Azienda&lt;/b&gt;" style="whiteSpace=wrap;html=1;" parent="1" vertex="1">
          <mxGeometry x="356" y="900" width="120" height="60" as="geometry" />
        </mxCell>
        <mxCell id="q3cyNkbLDBH9MtJmj8Bj-38" value="&lt;b&gt;Impianto Elettrico&lt;/b&gt;" style="whiteSpace=wrap;html=1;" parent="1" vertex="1">
          <mxGeometry x="276" y="310" width="120" height="60" as="geometry" />
        </mxCell>
        <mxCell id="q3cyNkbLDBH9MtJmj8Bj-40" value="&lt;b&gt;Preventivo&lt;/b&gt;" style="whiteSpace=wrap;html=1;" parent="1" vertex="1">
          <mxGeometry x="726" y="740" width="120" height="60" as="geometry" />
        </mxCell>
        <mxCell id="q3cyNkbLDBH9MtJmj8Bj-42" value="&lt;b&gt;Lavoro&lt;/b&gt;" style="whiteSpace=wrap;html=1;" parent="1" vertex="1">
          <mxGeometry x="726" y="310" width="120" height="60" as="geometry" />
        </mxCell>
        <mxCell id="q3cyNkbLDBH9MtJmj8Bj-43" value="&lt;b&gt;Tipologia&lt;/b&gt;" style="whiteSpace=wrap;html=1;" parent="1" vertex="1">
          <mxGeometry x="1069" y="210" width="120" height="60" as="geometry" />
        </mxCell>
        <mxCell id="q3cyNkbLDBH9MtJmj8Bj-44" value="&lt;b&gt;PRIVATO&lt;/b&gt;" style="whiteSpace=wrap;html=1;" parent="1" vertex="1">
          <mxGeometry x="196" y="900" width="120" height="60" as="geometry" />
        </mxCell>
        <mxCell id="q3cyNkbLDBH9MtJmj8Bj-45" value="&lt;b&gt;AZIENDA&lt;/b&gt;" style="whiteSpace=wrap;html=1;" parent="1" vertex="1">
          <mxGeometry x="356" y="900" width="120" height="60" as="geometry" />
        </mxCell>
        <mxCell id="q3cyNkbLDBH9MtJmj8Bj-47" value="&lt;b&gt;IMPIANTO ELETTRICO&lt;/b&gt;" style="whiteSpace=wrap;html=1;" parent="1" vertex="1">
          <mxGeometry x="276" y="310" width="120" height="60" as="geometry" />
        </mxCell>
        <mxCell id="q3cyNkbLDBH9MtJmj8Bj-48" value="&lt;b&gt;FURGONE&lt;/b&gt;" style="whiteSpace=wrap;html=1;" parent="1" vertex="1">
          <mxGeometry x="989" y="570" width="120" height="60" as="geometry" />
        </mxCell>
        <mxCell id="q3cyNkbLDBH9MtJmj8Bj-49" value="&lt;b&gt;PREVENTIVO&lt;/b&gt;" style="whiteSpace=wrap;html=1;" parent="1" vertex="1">
          <mxGeometry x="726" y="740" width="120" height="60" as="geometry" />
        </mxCell>
        <mxCell id="q3cyNkbLDBH9MtJmj8Bj-51" value="&lt;b&gt;LAVORO&lt;/b&gt;" style="whiteSpace=wrap;html=1;" parent="1" vertex="1">
          <mxGeometry x="726" y="310" width="120" height="60" as="geometry" />
        </mxCell>
        <mxCell id="q3cyNkbLDBH9MtJmj8Bj-52" value="&lt;b&gt;TIPOLOGIA&lt;/b&gt;" style="whiteSpace=wrap;html=1;" parent="1" vertex="1">
          <mxGeometry x="1069" y="210" width="120" height="60" as="geometry" />
        </mxCell>
        <mxCell id="q3cyNkbLDBH9MtJmj8Bj-54" value="&lt;b&gt;ELETTRICISTA&lt;/b&gt;" style="whiteSpace=wrap;html=1;" parent="1" vertex="1">
          <mxGeometry x="1189" y="740" width="120" height="60" as="geometry" />
        </mxCell>
        <mxCell id="q3cyNkbLDBH9MtJmj8Bj-55" value="&lt;b&gt;SOCIO&lt;/b&gt;" style="whiteSpace=wrap;html=1;" parent="1" vertex="1">
          <mxGeometry x="1029" y="900" width="120" height="60" as="geometry" />
        </mxCell>
        <mxCell id="q3cyNkbLDBH9MtJmj8Bj-56" value="&lt;b&gt;DIPENDENTE&lt;/b&gt;" style="whiteSpace=wrap;html=1;" parent="1" vertex="1">
          <mxGeometry x="1189" y="900" width="120" height="60" as="geometry" />
        </mxCell>
        <mxCell id="q3cyNkbLDBH9MtJmj8Bj-59" value="&lt;font style=&quot;font-size: 16px&quot;&gt;(t,e)&lt;/font&gt;" style="text;html=1;align=center;verticalAlign=middle;resizable=0;points=[];autosize=1;strokeColor=none;" parent="1" vertex="1">
          <mxGeometry x="336" y="840" width="40" height="20" as="geometry" />
        </mxCell>
        <mxCell id="q3cyNkbLDBH9MtJmj8Bj-60" value="&lt;font style=&quot;font-size: 16px&quot;&gt;(t,e)&lt;/font&gt;" style="text;html=1;align=center;verticalAlign=middle;resizable=0;points=[];autosize=1;strokeColor=none;" parent="1" vertex="1">
          <mxGeometry x="1249" y="840" width="40" height="20" as="geometry" />
        </mxCell>
        <mxCell id="q3cyNkbLDBH9MtJmj8Bj-63" value="&lt;font style=&quot;font-size: 16px&quot;&gt;(0,N)&lt;/font&gt;" style="text;html=1;align=center;verticalAlign=middle;resizable=0;points=[];autosize=1;strokeColor=none;" parent="1" vertex="1">
          <mxGeometry x="333" y="660" width="50" height="20" as="geometry" />
        </mxCell>
        <mxCell id="q3cyNkbLDBH9MtJmj8Bj-64" value="&lt;font style=&quot;font-size: 16px&quot;&gt;(1,1)&lt;/font&gt;" style="text;html=1;align=center;verticalAlign=middle;resizable=0;points=[];autosize=1;strokeColor=none;" parent="1" vertex="1">
          <mxGeometry x="331" y="434" width="50" height="20" as="geometry" />
        </mxCell>
        <mxCell id="q3cyNkbLDBH9MtJmj8Bj-68" style="edgeStyle=orthogonalEdgeStyle;orthogonalLoop=1;jettySize=auto;html=1;entryX=0;entryY=0.5;entryDx=0;entryDy=0;endArrow=none;endFill=0;" parent="1" source="q3cyNkbLDBH9MtJmj8Bj-66" target="q3cyNkbLDBH9MtJmj8Bj-47" edge="1">
          <mxGeometry relative="1" as="geometry" />
        </mxCell>
        <mxCell id="q3cyNkbLDBH9MtJmj8Bj-66" value="Indirizzo" style="ellipse;whiteSpace=wrap;html=1;" parent="1" vertex="1">
          <mxGeometry x="186" y="325" width="60" height="30" as="geometry" />
        </mxCell>
        <mxCell id="q3cyNkbLDBH9MtJmj8Bj-69" value="&lt;font style=&quot;font-size: 16px&quot;&gt;(1,1)&lt;/font&gt;" style="text;html=1;align=center;verticalAlign=middle;resizable=0;points=[];autosize=1;strokeColor=none;" parent="1" vertex="1">
          <mxGeometry x="651" y="320" width="50" height="20" as="geometry" />
        </mxCell>
        <mxCell id="q3cyNkbLDBH9MtJmj8Bj-70" value="&lt;font style=&quot;font-size: 16px&quot;&gt;(1,1)&lt;/font&gt;" style="text;html=1;align=center;verticalAlign=middle;resizable=0;points=[];autosize=1;strokeColor=none;" parent="1" vertex="1">
          <mxGeometry x="1244" y="404" width="50" height="20" as="geometry" />
        </mxCell>
        <mxCell id="q3cyNkbLDBH9MtJmj8Bj-71" value="&lt;font style=&quot;font-size: 16px&quot;&gt;(1,1)&lt;/font&gt;" style="text;html=1;align=center;verticalAlign=middle;resizable=0;points=[];autosize=1;strokeColor=none;" parent="1" vertex="1">
          <mxGeometry x="887.5" y="750" width="50" height="20" as="geometry" />
        </mxCell>
        <mxCell id="q3cyNkbLDBH9MtJmj8Bj-72" value="&lt;font style=&quot;font-size: 16px&quot;&gt;(1,1)&lt;/font&gt;" style="text;html=1;align=center;verticalAlign=middle;resizable=0;points=[];autosize=1;strokeColor=none;" parent="1" vertex="1">
          <mxGeometry x="651" y="748" width="50" height="20" as="geometry" />
        </mxCell>
        <mxCell id="q3cyNkbLDBH9MtJmj8Bj-74" value="&lt;font style=&quot;font-size: 16px&quot;&gt;(1,1)&lt;/font&gt;" style="text;html=1;align=center;verticalAlign=middle;resizable=0;points=[];autosize=1;strokeColor=none;" parent="1" vertex="1">
          <mxGeometry x="787" y="240" width="50" height="20" as="geometry" />
        </mxCell>
        <mxCell id="q3cyNkbLDBH9MtJmj8Bj-75" value="&lt;font style=&quot;font-size: 16px&quot;&gt;(0,N)&lt;/font&gt;" style="text;html=1;align=center;verticalAlign=middle;resizable=0;points=[];autosize=1;strokeColor=none;" parent="1" vertex="1">
          <mxGeometry x="439" y="748" width="50" height="20" as="geometry" />
        </mxCell>
        <mxCell id="q3cyNkbLDBH9MtJmj8Bj-76" value="&lt;font style=&quot;font-size: 16px&quot;&gt;(1,1)&lt;/font&gt;" style="text;html=1;align=center;verticalAlign=middle;resizable=0;points=[];autosize=1;strokeColor=none;" parent="1" vertex="1">
          <mxGeometry x="1124" y="459" width="50" height="20" as="geometry" />
        </mxCell>
        <mxCell id="q3cyNkbLDBH9MtJmj8Bj-80" style="edgeStyle=orthogonalEdgeStyle;orthogonalLoop=1;jettySize=auto;html=1;entryX=0.25;entryY=1;entryDx=0;entryDy=0;endArrow=none;endFill=0;rounded=0;" parent="1" source="q3cyNkbLDBH9MtJmj8Bj-79" target="q3cyNkbLDBH9MtJmj8Bj-51" edge="1">
          <mxGeometry relative="1" as="geometry" />
        </mxCell>
        <mxCell id="q3cyNkbLDBH9MtJmj8Bj-81" value="" style="edgeStyle=orthogonalEdgeStyle;orthogonalLoop=1;jettySize=auto;html=1;endArrow=none;endFill=0;entryX=-0.005;entryY=0.5;entryDx=0;entryDy=0;entryPerimeter=0;" parent="1" source="q3cyNkbLDBH9MtJmj8Bj-79" target="q3cyNkbLDBH9MtJmj8Bj-113" edge="1">
          <mxGeometry relative="1" as="geometry">
            <mxPoint x="815.9999999999998" y="463.9999999999999" as="targetPoint" />
          </mxGeometry>
        </mxCell>
        <mxCell id="q3cyNkbLDBH9MtJmj8Bj-79" value="&lt;b&gt;MATERIALE IN&lt;br&gt;LAVORO&lt;br&gt;&lt;/b&gt;" style="rhombus;whiteSpace=wrap;html=1;" parent="1" vertex="1">
          <mxGeometry x="640" y="424" width="120" height="80" as="geometry" />
        </mxCell>
        <mxCell id="q3cyNkbLDBH9MtJmj8Bj-84" value="&lt;font style=&quot;font-size: 16px&quot;&gt;(0,N)&lt;/font&gt;" style="text;html=1;align=center;verticalAlign=middle;resizable=0;points=[];autosize=1;strokeColor=none;" parent="1" vertex="1">
          <mxGeometry x="426" y="320" width="50" height="20" as="geometry" />
        </mxCell>
        <mxCell id="q3cyNkbLDBH9MtJmj8Bj-85" value="&lt;font style=&quot;font-size: 16px&quot;&gt;(0,N)&lt;/font&gt;" style="text;html=1;align=center;verticalAlign=middle;resizable=0;points=[];autosize=1;strokeColor=none;" parent="1" vertex="1">
          <mxGeometry x="1007" y="220" width="50" height="20" as="geometry" />
        </mxCell>
        <mxCell id="q3cyNkbLDBH9MtJmj8Bj-86" value="&lt;font style=&quot;font-size: 16px&quot;&gt;(0,N)&lt;/font&gt;" style="text;html=1;align=center;verticalAlign=middle;resizable=0;points=[];autosize=1;strokeColor=none;" parent="1" vertex="1">
          <mxGeometry x="1109" y="748" width="50" height="20" as="geometry" />
        </mxCell>
        <mxCell id="q3cyNkbLDBH9MtJmj8Bj-87" value="&lt;font style=&quot;font-size: 16px&quot;&gt;(0,N)&lt;/font&gt;" style="text;html=1;align=center;verticalAlign=middle;resizable=0;points=[];autosize=1;strokeColor=none;" parent="1" vertex="1">
          <mxGeometry x="1246" y="690" width="50" height="20" as="geometry" />
        </mxCell>
        <mxCell id="q3cyNkbLDBH9MtJmj8Bj-89" value="&lt;font style=&quot;font-size: 16px&quot;&gt;(1,1)&lt;/font&gt;" style="text;html=1;align=center;verticalAlign=middle;resizable=0;points=[];autosize=1;strokeColor=none;" parent="1" vertex="1">
          <mxGeometry x="1246" y="535" width="50" height="20" as="geometry" />
        </mxCell>
        <mxCell id="q3cyNkbLDBH9MtJmj8Bj-90" value="&lt;font style=&quot;font-size: 16px&quot;&gt;(1,1)&lt;/font&gt;" style="text;html=1;align=center;verticalAlign=middle;resizable=0;points=[];autosize=1;strokeColor=none;" parent="1" vertex="1">
          <mxGeometry x="547" y="553" width="50" height="20" as="geometry" />
        </mxCell>
        <mxCell id="q3cyNkbLDBH9MtJmj8Bj-92" value="&lt;font style=&quot;font-size: 16px&quot;&gt;(0,N)&lt;/font&gt;" style="text;html=1;align=center;verticalAlign=middle;resizable=0;points=[];autosize=1;strokeColor=none;" parent="1" vertex="1">
          <mxGeometry x="1049" y="535" width="50" height="20" as="geometry" />
        </mxCell>
        <mxCell id="q3cyNkbLDBH9MtJmj8Bj-93" value="&lt;font style=&quot;font-size: 16px&quot;&gt;(1,1)&lt;/font&gt;" style="text;html=1;align=center;verticalAlign=middle;resizable=0;points=[];autosize=1;strokeColor=none;" parent="1" vertex="1">
          <mxGeometry x="761" y="444" width="50" height="20" as="geometry" />
        </mxCell>
        <mxCell id="q3cyNkbLDBH9MtJmj8Bj-94" value="&lt;font style=&quot;font-size: 16px&quot;&gt;(1,1)&lt;/font&gt;" style="text;html=1;align=center;verticalAlign=middle;resizable=0;points=[];autosize=1;strokeColor=none;" parent="1" vertex="1">
          <mxGeometry x="874" y="504" width="50" height="20" as="geometry" />
        </mxCell>
        <mxCell id="q3cyNkbLDBH9MtJmj8Bj-96" value="&lt;font style=&quot;font-size: 16px&quot;&gt;(0,N)&lt;/font&gt;" style="text;html=1;align=center;verticalAlign=middle;resizable=0;points=[];autosize=1;strokeColor=none;" parent="1" vertex="1">
          <mxGeometry x="784" y="715" width="46" height="20" as="geometry" />
        </mxCell>
        <mxCell id="q3cyNkbLDBH9MtJmj8Bj-97" value="&lt;font style=&quot;font-size: 16px&quot;&gt;(0,N)&lt;/font&gt;" style="text;html=1;align=center;verticalAlign=middle;resizable=0;points=[];autosize=1;strokeColor=none;" parent="1" vertex="1">
          <mxGeometry x="659" y="648" width="46" height="20" as="geometry" />
        </mxCell>
        <mxCell id="q3cyNkbLDBH9MtJmj8Bj-101" value="&lt;font style=&quot;font-size: 16px&quot;&gt;(0,N)&lt;/font&gt;" style="text;html=1;align=center;verticalAlign=middle;resizable=0;points=[];autosize=1;strokeColor=none;" parent="1" vertex="1">
          <mxGeometry x="751" y="553" width="46" height="20" as="geometry" />
        </mxCell>
        <mxCell id="q3cyNkbLDBH9MtJmj8Bj-102" value="&lt;font style=&quot;font-size: 16px&quot;&gt;(0,N)&lt;/font&gt;" style="text;html=1;align=center;verticalAlign=middle;resizable=0;points=[];autosize=1;strokeColor=none;" parent="1" vertex="1">
          <mxGeometry x="479" y="500" width="46" height="20" as="geometry" />
        </mxCell>
        <mxCell id="q3cyNkbLDBH9MtJmj8Bj-103" value="&lt;font style=&quot;font-size: 16px&quot;&gt;(0,N)&lt;/font&gt;" style="text;html=1;align=center;verticalAlign=middle;resizable=0;points=[];autosize=1;strokeColor=none;" parent="1" vertex="1">
          <mxGeometry x="703" y="396" width="46" height="20" as="geometry" />
        </mxCell>
        <mxCell id="q3cyNkbLDBH9MtJmj8Bj-104" value="&lt;font style=&quot;font-size: 16px&quot;&gt;(0,N)&lt;/font&gt;" style="text;html=1;align=center;verticalAlign=middle;resizable=0;points=[];autosize=1;strokeColor=none;" parent="1" vertex="1">
          <mxGeometry x="994" y="320" width="46" height="20" as="geometry" />
        </mxCell>
        <mxCell id="q3cyNkbLDBH9MtJmj8Bj-113" value="" style="rounded=0;whiteSpace=wrap;html=1;fillColor=none;" parent="1" vertex="1">
          <mxGeometry x="811" y="429" width="130" height="70" as="geometry" />
        </mxCell>
        <mxCell id="q3cyNkbLDBH9MtJmj8Bj-115" value="&lt;b&gt;DETTAGLI MATERIALE&lt;/b&gt;" style="whiteSpace=wrap;html=1;" parent="1" vertex="1">
          <mxGeometry x="816" y="434" width="120" height="60" as="geometry" />
        </mxCell>
        <mxCell id="q3cyNkbLDBH9MtJmj8Bj-116" value="" style="rounded=0;whiteSpace=wrap;html=1;fillColor=none;" parent="1" vertex="1">
          <mxGeometry x="1184" y="445" width="130" height="70" as="geometry" />
        </mxCell>
        <mxCell id="q3cyNkbLDBH9MtJmj8Bj-117" value="&lt;b&gt;TURNO LAVORATIVO&lt;br&gt;&lt;/b&gt;" style="whiteSpace=wrap;html=1;" parent="1" vertex="1">
          <mxGeometry x="1189" y="450" width="120" height="60" as="geometry" />
        </mxCell>
        <mxCell id="SJ0lM-k238RFthhAqbpE-3" value="" style="endArrow=none;html=1;startArrow=oval;startFill=0;endSize=10;startSize=10;" parent="1" target="q3cyNkbLDBH9MtJmj8Bj-51" edge="1">
          <mxGeometry width="50" height="50" relative="1" as="geometry">
            <mxPoint x="705" y="278" as="sourcePoint" />
            <mxPoint x="741" y="309.31" as="targetPoint" />
          </mxGeometry>
        </mxCell>
        <mxCell id="SJ0lM-k238RFthhAqbpE-5" value="" style="endArrow=none;html=1;startArrow=oval;startFill=1;endSize=10;startSize=10;" parent="1" edge="1">
          <mxGeometry width="50" height="50" relative="1" as="geometry">
            <mxPoint x="236" y="750" as="sourcePoint" />
            <mxPoint x="276" y="750" as="targetPoint" />
          </mxGeometry>
        </mxCell>
        <mxCell id="SJ0lM-k238RFthhAqbpE-6" value="" style="endArrow=none;html=1;startArrow=oval;startFill=0;endSize=10;startSize=10;" parent="1" edge="1">
          <mxGeometry width="50" height="50" relative="1" as="geometry">
            <mxPoint x="236" y="787" as="sourcePoint" />
            <mxPoint x="276" y="787" as="targetPoint" />
          </mxGeometry>
        </mxCell>
        <mxCell id="SJ0lM-k238RFthhAqbpE-7" value="" style="endArrow=none;html=1;startArrow=oval;startFill=1;endSize=10;startSize=10;" parent="1" edge="1">
          <mxGeometry width="50" height="50" relative="1" as="geometry">
            <mxPoint x="156" y="910" as="sourcePoint" />
            <mxPoint x="196" y="910" as="targetPoint" />
          </mxGeometry>
        </mxCell>
        <mxCell id="SJ0lM-k238RFthhAqbpE-8" value="" style="endArrow=none;html=1;startArrow=oval;startFill=0;endSize=10;startSize=10;" parent="1" edge="1">
          <mxGeometry width="50" height="50" relative="1" as="geometry">
            <mxPoint x="156" y="930" as="sourcePoint" />
            <mxPoint x="196" y="929.52" as="targetPoint" />
          </mxGeometry>
        </mxCell>
        <mxCell id="SJ0lM-k238RFthhAqbpE-9" value="" style="endArrow=none;html=1;startArrow=oval;startFill=0;endSize=10;startSize=10;" parent="1" edge="1">
          <mxGeometry width="50" height="50" relative="1" as="geometry">
            <mxPoint x="156" y="949" as="sourcePoint" />
            <mxPoint x="196" y="949" as="targetPoint" />
          </mxGeometry>
        </mxCell>
        <mxCell id="SJ0lM-k238RFthhAqbpE-10" value="" style="endArrow=oval;html=1;startArrow=none;startFill=0;endSize=10;startSize=10;endFill=1;" parent="1" edge="1">
          <mxGeometry width="50" height="50" relative="1" as="geometry">
            <mxPoint x="476" y="910" as="sourcePoint" />
            <mxPoint x="516" y="910" as="targetPoint" />
          </mxGeometry>
        </mxCell>
        <mxCell id="SJ0lM-k238RFthhAqbpE-11" value="" style="endArrow=oval;html=1;startArrow=none;startFill=0;endSize=10;startSize=10;endFill=0;" parent="1" edge="1">
          <mxGeometry width="50" height="50" relative="1" as="geometry">
            <mxPoint x="476" y="948" as="sourcePoint" />
            <mxPoint x="516" y="948" as="targetPoint" />
          </mxGeometry>
        </mxCell>
        <mxCell id="SJ0lM-k238RFthhAqbpE-12" value="" style="endArrow=none;html=1;startArrow=oval;startFill=0;endSize=10;startSize=10;" parent="1" edge="1">
          <mxGeometry width="50" height="50" relative="1" as="geometry">
            <mxPoint x="145" y="340" as="sourcePoint" />
            <mxPoint x="186" y="339.65999999999997" as="targetPoint" />
          </mxGeometry>
        </mxCell>
        <mxCell id="SJ0lM-k238RFthhAqbpE-13" value="" style="endArrow=none;html=1;startArrow=oval;startFill=0;endSize=10;startSize=10;" parent="1" edge="1">
          <mxGeometry width="50" height="50" relative="1" as="geometry">
            <mxPoint x="170" y="304" as="sourcePoint" />
            <mxPoint x="196" y="328.91999999999996" as="targetPoint" />
          </mxGeometry>
        </mxCell>
        <mxCell id="SJ0lM-k238RFthhAqbpE-14" value="" style="endArrow=none;html=1;startArrow=oval;startFill=0;endSize=10;startSize=10;entryX=0.5;entryY=0;entryDx=0;entryDy=0;" parent="1" target="q3cyNkbLDBH9MtJmj8Bj-66" edge="1">
          <mxGeometry width="50" height="50" relative="1" as="geometry">
            <mxPoint x="216" y="287" as="sourcePoint" />
            <mxPoint x="204" y="339.91999999999996" as="targetPoint" />
          </mxGeometry>
        </mxCell>
        <mxCell id="SJ0lM-k238RFthhAqbpE-15" value="" style="endArrow=none;html=1;startArrow=oval;startFill=0;endSize=10;startSize=10;entryX=0;entryY=1;entryDx=0;entryDy=0;" parent="1" target="q3cyNkbLDBH9MtJmj8Bj-66" edge="1">
          <mxGeometry width="50" height="50" relative="1" as="geometry">
            <mxPoint x="164" y="372" as="sourcePoint" />
            <mxPoint x="206" y="338.91999999999996" as="targetPoint" />
          </mxGeometry>
        </mxCell>
        <mxCell id="SJ0lM-k238RFthhAqbpE-16" value="" style="endArrow=none;html=1;startArrow=oval;startFill=0;endSize=10;startSize=10;" parent="1" edge="1">
          <mxGeometry width="50" height="50" relative="1" as="geometry">
            <mxPoint x="215.94" y="392" as="sourcePoint" />
            <mxPoint x="216" y="355" as="targetPoint" />
          </mxGeometry>
        </mxCell>
        <mxCell id="SJ0lM-k238RFthhAqbpE-17" value="" style="endArrow=none;html=1;startArrow=oval;startFill=1;endSize=10;startSize=10;entryX=0.853;entryY=-0.003;entryDx=0;entryDy=0;entryPerimeter=0;" parent="1" target="q3cyNkbLDBH9MtJmj8Bj-47" edge="1">
          <mxGeometry width="50" height="50" relative="1" as="geometry">
            <mxPoint x="378" y="270" as="sourcePoint" />
            <mxPoint x="384" y="302" as="targetPoint" />
          </mxGeometry>
        </mxCell>
        <mxCell id="SJ0lM-k238RFthhAqbpE-20" value="" style="endArrow=none;html=1;startArrow=oval;startFill=0;endSize=10;startSize=10;entryX=1;entryY=0.75;entryDx=0;entryDy=0;" parent="1" target="q3cyNkbLDBH9MtJmj8Bj-52" edge="1">
          <mxGeometry width="50" height="50" relative="1" as="geometry">
            <mxPoint x="1220" y="255" as="sourcePoint" />
            <mxPoint x="756.8064516129032" y="320" as="targetPoint" />
          </mxGeometry>
        </mxCell>
        <mxCell id="SJ0lM-k238RFthhAqbpE-21" value="" style="endArrow=none;html=1;startArrow=oval;startFill=0;endSize=10;startSize=10;entryX=0.5;entryY=0;entryDx=0;entryDy=0;" parent="1" target="q3cyNkbLDBH9MtJmj8Bj-52" edge="1">
          <mxGeometry width="50" height="50" relative="1" as="geometry">
            <mxPoint x="1129" y="177" as="sourcePoint" />
            <mxPoint x="1199" y="265" as="targetPoint" />
          </mxGeometry>
        </mxCell>
        <mxCell id="SJ0lM-k238RFthhAqbpE-22" value="" style="endArrow=none;html=1;startArrow=oval;startFill=1;endSize=10;startSize=10;entryX=1;entryY=0.25;entryDx=0;entryDy=0;" parent="1" target="q3cyNkbLDBH9MtJmj8Bj-52" edge="1">
          <mxGeometry width="50" height="50" relative="1" as="geometry">
            <mxPoint x="1220" y="225" as="sourcePoint" />
            <mxPoint x="1244" y="223.99999999999997" as="targetPoint" />
          </mxGeometry>
        </mxCell>
        <mxCell id="SJ0lM-k238RFthhAqbpE-23" value="" style="endArrow=none;html=1;startArrow=oval;startFill=0;endSize=10;startSize=10;entryX=0.75;entryY=1;entryDx=0;entryDy=0;" parent="1" target="q3cyNkbLDBH9MtJmj8Bj-49" edge="1">
          <mxGeometry width="50" height="50" relative="1" as="geometry">
            <mxPoint x="816" y="825" as="sourcePoint" />
            <mxPoint x="822" y="803" as="targetPoint" />
          </mxGeometry>
        </mxCell>
        <mxCell id="SJ0lM-k238RFthhAqbpE-24" value="" style="endArrow=none;html=1;startArrow=oval;startFill=1;endSize=10;startSize=10;entryX=0.25;entryY=1;entryDx=0;entryDy=0;" parent="1" target="q3cyNkbLDBH9MtJmj8Bj-49" edge="1">
          <mxGeometry width="50" height="50" relative="1" as="geometry">
            <mxPoint x="756" y="825" as="sourcePoint" />
            <mxPoint x="756" y="814" as="targetPoint" />
          </mxGeometry>
        </mxCell>
        <mxCell id="SJ0lM-k238RFthhAqbpE-25" value="" style="endArrow=none;html=1;startArrow=oval;startFill=0;endSize=10;startSize=10;entryX=0.001;entryY=0.846;entryDx=0;entryDy=0;entryPerimeter=0;" parent="1" edge="1">
          <mxGeometry width="50" height="50" relative="1" as="geometry">
            <mxPoint x="1210" y="825" as="sourcePoint" />
            <mxPoint x="1210.12" y="800.0000000000001" as="targetPoint" />
          </mxGeometry>
        </mxCell>
        <mxCell id="SJ0lM-k238RFthhAqbpE-26" value="" style="endArrow=none;html=1;startArrow=oval;startFill=1;endSize=10;startSize=10;entryX=0.999;entryY=0.15;entryDx=0;entryDy=0;entryPerimeter=0;" parent="1" target="q3cyNkbLDBH9MtJmj8Bj-54" edge="1">
          <mxGeometry width="50" height="50" relative="1" as="geometry">
            <mxPoint x="1340" y="749" as="sourcePoint" />
            <mxPoint x="1313" y="749" as="targetPoint" />
          </mxGeometry>
        </mxCell>
        <mxCell id="SJ0lM-k238RFthhAqbpE-27" value="" style="endArrow=none;html=1;startArrow=oval;startFill=0;endSize=10;startSize=10;entryX=1;entryY=0.5;entryDx=0;entryDy=0;" parent="1" target="q3cyNkbLDBH9MtJmj8Bj-54" edge="1">
          <mxGeometry width="50" height="50" relative="1" as="geometry">
            <mxPoint x="1340" y="769.66" as="sourcePoint" />
            <mxPoint x="1309" y="769.66" as="targetPoint" />
          </mxGeometry>
        </mxCell>
        <mxCell id="SJ0lM-k238RFthhAqbpE-28" value="" style="endArrow=none;html=1;startArrow=oval;startFill=0;endSize=10;startSize=10;entryX=1.003;entryY=0.851;entryDx=0;entryDy=0;entryPerimeter=0;" parent="1" target="q3cyNkbLDBH9MtJmj8Bj-54" edge="1">
          <mxGeometry width="50" height="50" relative="1" as="geometry">
            <mxPoint x="1340" y="791" as="sourcePoint" />
            <mxPoint x="1319" y="780" as="targetPoint" />
          </mxGeometry>
        </mxCell>
        <mxCell id="SJ0lM-k238RFthhAqbpE-29" value="" style="endArrow=none;html=1;startArrow=oval;startFill=0;endSize=10;startSize=10;entryX=0;entryY=0.5;entryDx=0;entryDy=0;" parent="1" edge="1">
          <mxGeometry width="50" height="50" relative="1" as="geometry">
            <mxPoint x="1210" y="716" as="sourcePoint" />
            <mxPoint x="1210" y="740" as="targetPoint" />
          </mxGeometry>
        </mxCell>
        <mxCell id="SJ0lM-k238RFthhAqbpE-31" value="" style="endArrow=none;html=1;startArrow=oval;startFill=0;endSize=10;startSize=10;entryX=0.5;entryY=1;entryDx=0;entryDy=0;" parent="1" target="q3cyNkbLDBH9MtJmj8Bj-55" edge="1">
          <mxGeometry width="50" height="50" relative="1" as="geometry">
            <mxPoint x="1089" y="990" as="sourcePoint" />
            <mxPoint x="1199.12" y="800.7600000000002" as="targetPoint" />
          </mxGeometry>
        </mxCell>
        <mxCell id="SJ0lM-k238RFthhAqbpE-36" value="" style="endArrow=none;html=1;startArrow=oval;startFill=0;endSize=10;startSize=10;entryX=0.75;entryY=1;entryDx=0;entryDy=0;" parent="1" edge="1">
          <mxGeometry width="50" height="50" relative="1" as="geometry">
            <mxPoint x="1248.71" y="990" as="sourcePoint" />
            <mxPoint x="1248.71" y="960" as="targetPoint" />
          </mxGeometry>
        </mxCell>
        <mxCell id="SJ0lM-k238RFthhAqbpE-37" value="" style="endArrow=none;html=1;startArrow=oval;startFill=0;endSize=10;startSize=10;entryX=0.75;entryY=1;entryDx=0;entryDy=0;" parent="1" edge="1">
          <mxGeometry width="50" height="50" relative="1" as="geometry">
            <mxPoint x="1408.7100000000003" y="990" as="sourcePoint" />
            <mxPoint x="1408.7100000000003" y="960" as="targetPoint" />
          </mxGeometry>
        </mxCell>
        <mxCell id="SJ0lM-k238RFthhAqbpE-38" value="" style="endArrow=none;html=1;startArrow=oval;startFill=0;endSize=10;startSize=10;entryX=1;entryY=0.5;entryDx=0;entryDy=0;" parent="1" edge="1">
          <mxGeometry width="50" height="50" relative="1" as="geometry">
            <mxPoint x="1360" y="480" as="sourcePoint" />
            <mxPoint x="1314" y="480.05" as="targetPoint" />
          </mxGeometry>
        </mxCell>
        <mxCell id="SJ0lM-k238RFthhAqbpE-39" value="" style="endArrow=none;html=1;startArrow=oval;startFill=0;endSize=10;startSize=10;entryX=1;entryY=0.5;entryDx=0;entryDy=0;" parent="1" edge="1">
          <mxGeometry width="50" height="50" relative="1" as="geometry">
            <mxPoint x="1140" y="584.9999999999999" as="sourcePoint" />
            <mxPoint x="1109" y="585.34" as="targetPoint" />
          </mxGeometry>
        </mxCell>
        <mxCell id="SJ0lM-k238RFthhAqbpE-40" value="" style="endArrow=none;html=1;startArrow=oval;startFill=0;endSize=10;startSize=10;entryX=0.848;entryY=1.009;entryDx=0;entryDy=0;entryPerimeter=0;" parent="1" target="q3cyNkbLDBH9MtJmj8Bj-48" edge="1">
          <mxGeometry width="50" height="50" relative="1" as="geometry">
            <mxPoint x="1091" y="665" as="sourcePoint" />
            <mxPoint x="1083" y="636" as="targetPoint" />
          </mxGeometry>
        </mxCell>
        <mxCell id="SJ0lM-k238RFthhAqbpE-41" value="" style="endArrow=none;html=1;startArrow=oval;startFill=0;endSize=10;startSize=10;entryX=0.5;entryY=1;entryDx=0;entryDy=0;" parent="1" target="q3cyNkbLDBH9MtJmj8Bj-48" edge="1">
          <mxGeometry width="50" height="50" relative="1" as="geometry">
            <mxPoint x="1049" y="665" as="sourcePoint" />
            <mxPoint x="1100.76" y="640.54" as="targetPoint" />
          </mxGeometry>
        </mxCell>
        <mxCell id="SJ0lM-k238RFthhAqbpE-42" value="" style="endArrow=none;html=1;startArrow=oval;startFill=1;endSize=10;startSize=10;entryX=0.147;entryY=1.002;entryDx=0;entryDy=0;entryPerimeter=0;" parent="1" target="q3cyNkbLDBH9MtJmj8Bj-48" edge="1">
          <mxGeometry width="50" height="50" relative="1" as="geometry">
            <mxPoint x="1007" y="665" as="sourcePoint" />
            <mxPoint x="1059" y="640" as="targetPoint" />
          </mxGeometry>
        </mxCell>
        <mxCell id="SJ0lM-k238RFthhAqbpE-43" value="" style="endArrow=none;html=1;startArrow=oval;startFill=0;endSize=10;startSize=10;entryX=1;entryY=0.75;entryDx=0;entryDy=0;" parent="1" edge="1">
          <mxGeometry width="50" height="50" relative="1" as="geometry">
            <mxPoint x="857.9999999999998" y="683" as="sourcePoint" />
            <mxPoint x="827" y="683" as="targetPoint" />
          </mxGeometry>
        </mxCell>
        <mxCell id="SJ0lM-k238RFthhAqbpE-44" value="" style="endArrow=none;html=1;startArrow=oval;startFill=0;endSize=10;startSize=10;entryX=0.853;entryY=0.349;entryDx=0;entryDy=0;entryPerimeter=0;" parent="1" target="mw7v7OqiFIPlVH7VP6Rh-51" edge="1">
          <mxGeometry width="50" height="50" relative="1" as="geometry">
            <mxPoint x="857.9999999999998" y="657.9799999999999" as="sourcePoint" />
            <mxPoint x="837" y="658" as="targetPoint" />
          </mxGeometry>
        </mxCell>
        <mxCell id="SJ0lM-k238RFthhAqbpE-46" value="" style="endArrow=none;html=1;startArrow=oval;startFill=0;endSize=10;startSize=10;entryX=1;entryY=0.5;entryDx=0;entryDy=0;" parent="1" edge="1">
          <mxGeometry width="50" height="50" relative="1" as="geometry">
            <mxPoint x="1198" y="415" as="sourcePoint" />
            <mxPoint x="1198" y="444.99999999999994" as="targetPoint" />
          </mxGeometry>
        </mxCell>
        <mxCell id="SJ0lM-k238RFthhAqbpE-47" value="" style="endArrow=oval;html=1;startArrow=none;startFill=0;endSize=10;startSize=10;entryX=1;entryY=0.5;entryDx=0;entryDy=0;endFill=0;" parent="1" edge="1">
          <mxGeometry width="50" height="50" relative="1" as="geometry">
            <mxPoint x="1197" y="515" as="sourcePoint" />
            <mxPoint x="1197" y="545" as="targetPoint" />
          </mxGeometry>
        </mxCell>
        <mxCell id="SJ0lM-k238RFthhAqbpE-48" value="" style="endArrow=none;html=1;startArrow=oval;startFill=0;endSize=10;startSize=10;entryX=0.5;entryY=0;entryDx=0;entryDy=0;" parent="1" target="q3cyNkbLDBH9MtJmj8Bj-47" edge="1">
          <mxGeometry width="50" height="50" relative="1" as="geometry">
            <mxPoint x="336" y="270" as="sourcePoint" />
            <mxPoint x="388.36" y="319.82" as="targetPoint" />
          </mxGeometry>
        </mxCell>
        <mxCell id="SJ0lM-k238RFthhAqbpE-49" value="" style="endArrow=none;html=1;startArrow=oval;startFill=0;endSize=10;startSize=10;entryX=0.147;entryY=0.002;entryDx=0;entryDy=0;entryPerimeter=0;" parent="1" target="q3cyNkbLDBH9MtJmj8Bj-47" edge="1">
          <mxGeometry width="50" height="50" relative="1" as="geometry">
            <mxPoint x="294" y="270" as="sourcePoint" />
            <mxPoint x="294" y="304" as="targetPoint" />
          </mxGeometry>
        </mxCell>
        <mxCell id="SJ0lM-k238RFthhAqbpE-50" value="" style="endArrow=none;html=1;startArrow=oval;startFill=1;endSize=10;startSize=10;entryX=1;entryY=0.25;entryDx=0;entryDy=0;" parent="1" target="q3cyNkbLDBH9MtJmj8Bj-20" edge="1">
          <mxGeometry width="50" height="50" relative="1" as="geometry">
            <mxPoint x="570" y="443" as="sourcePoint" />
            <mxPoint x="564.3600000000001" y="443.81999999999994" as="targetPoint" />
          </mxGeometry>
        </mxCell>
        <mxCell id="SJ0lM-k238RFthhAqbpE-51" value="" style="endArrow=none;html=1;startArrow=oval;startFill=0;endSize=10;startSize=10;entryX=0.75;entryY=0;entryDx=0;entryDy=0;" parent="1" target="q3cyNkbLDBH9MtJmj8Bj-20" edge="1">
          <mxGeometry width="50" height="50" relative="1" as="geometry">
            <mxPoint x="511" y="400" as="sourcePoint" />
            <mxPoint x="481" y="427.88" as="targetPoint" />
          </mxGeometry>
        </mxCell>
        <mxCell id="SJ0lM-k238RFthhAqbpE-53" value="" style="endArrow=none;html=1;startArrow=oval;startFill=0;endSize=10;startSize=10;entryX=0.25;entryY=0;entryDx=0;entryDy=0;" parent="1" target="q3cyNkbLDBH9MtJmj8Bj-20" edge="1">
          <mxGeometry width="50" height="50" relative="1" as="geometry">
            <mxPoint x="451" y="400" as="sourcePoint" />
            <mxPoint x="521" y="438" as="targetPoint" />
          </mxGeometry>
        </mxCell>
        <mxCell id="SJ0lM-k238RFthhAqbpE-54" value="" style="endArrow=none;html=1;startArrow=oval;startFill=0;endSize=10;startSize=10;entryX=0;entryY=0.75;entryDx=0;entryDy=0;" parent="1" target="q3cyNkbLDBH9MtJmj8Bj-113" edge="1">
          <mxGeometry width="50" height="50" relative="1" as="geometry">
            <mxPoint x="785" y="482" as="sourcePoint" />
            <mxPoint x="756.8064516129032" y="320" as="targetPoint" />
          </mxGeometry>
        </mxCell>
        <mxCell id="SJ0lM-k238RFthhAqbpE-55" value="" style="endArrow=none;html=1;startArrow=oval;startFill=0;endSize=10;startSize=10;entryX=0.25;entryY=1;entryDx=0;entryDy=0;" parent="1" target="q3cyNkbLDBH9MtJmj8Bj-113" edge="1">
          <mxGeometry width="50" height="50" relative="1" as="geometry">
            <mxPoint x="844" y="525" as="sourcePoint" />
            <mxPoint x="821" y="491.5" as="targetPoint" />
          </mxGeometry>
        </mxCell>
        <mxCell id="SJ0lM-k238RFthhAqbpE-56" value="" style="endArrow=none;html=1;startArrow=oval;startFill=0;endSize=10;startSize=10;entryX=0;entryY=1;entryDx=0;entryDy=0;" parent="1" target="q3cyNkbLDBH9MtJmj8Bj-113" edge="1">
          <mxGeometry width="50" height="50" relative="1" as="geometry">
            <mxPoint x="775" y="515" as="sourcePoint" />
            <mxPoint x="810" y="504" as="targetPoint" />
          </mxGeometry>
        </mxCell>
        <mxCell id="SJ0lM-k238RFthhAqbpE-57" value="Sconto" style="text;html=1;align=center;verticalAlign=middle;resizable=0;points=[];autosize=1;strokeColor=none;" parent="1" vertex="1">
          <mxGeometry x="737" y="476" width="47" height="18" as="geometry" />
        </mxCell>
        <mxCell id="SJ0lM-k238RFthhAqbpE-58" value="Quantità" style="text;html=1;align=center;verticalAlign=middle;resizable=0;points=[];autosize=1;strokeColor=none;" parent="1" vertex="1">
          <mxGeometry x="718" y="505" width="55" height="18" as="geometry" />
        </mxCell>
        <mxCell id="SJ0lM-k238RFthhAqbpE-59" value="Prezzo" style="text;html=1;align=center;verticalAlign=middle;resizable=0;points=[];autosize=1;strokeColor=none;" parent="1" vertex="1">
          <mxGeometry x="794" y="515" width="47" height="18" as="geometry" />
        </mxCell>
        <mxCell id="SJ0lM-k238RFthhAqbpE-60" value="" style="endArrow=none;html=1;startArrow=oval;startFill=0;endSize=10;startSize=10;entryX=0.25;entryY=0;entryDx=0;entryDy=0;" parent="1" target="q3cyNkbLDBH9MtJmj8Bj-113" edge="1">
          <mxGeometry width="50" height="50" relative="1" as="geometry">
            <mxPoint x="843" y="401" as="sourcePoint" />
            <mxPoint x="821" y="491.5000000000001" as="targetPoint" />
          </mxGeometry>
        </mxCell>
        <mxCell id="SJ0lM-k238RFthhAqbpE-61" value="Nota" style="text;html=1;align=center;verticalAlign=middle;resizable=0;points=[];autosize=1;strokeColor=none;" parent="1" vertex="1">
          <mxGeometry x="846" y="392" width="35" height="18" as="geometry" />
        </mxCell>
        <mxCell id="SJ0lM-k238RFthhAqbpE-62" value="" style="endArrow=none;html=1;startArrow=oval;startFill=1;endSize=10;startSize=10;entryX=0.149;entryY=0.008;entryDx=0;entryDy=0;entryPerimeter=0;" parent="1" target="mw7v7OqiFIPlVH7VP6Rh-44" edge="1">
          <mxGeometry width="50" height="50" relative="1" as="geometry">
            <mxPoint x="620" y="520" as="sourcePoint" />
            <mxPoint x="521" y="438" as="targetPoint" />
          </mxGeometry>
        </mxCell>
        <mxCell id="SJ0lM-k238RFthhAqbpE-63" value="" style="endArrow=none;html=1;startArrow=oval;startFill=0;endSize=10;startSize=10;entryX=0.149;entryY=0.008;entryDx=0;entryDy=0;entryPerimeter=0;" parent="1" edge="1">
          <mxGeometry width="50" height="50" relative="1" as="geometry">
            <mxPoint x="661.83" y="519.52" as="sourcePoint" />
            <mxPoint x="661.7099999999999" y="544.9999999999999" as="targetPoint" />
          </mxGeometry>
        </mxCell>
        <mxCell id="SJ0lM-k238RFthhAqbpE-65" value="" style="endArrow=none;html=1;startArrow=oval;startFill=0;endSize=10;startSize=10;entryX=0.001;entryY=0.903;entryDx=0;entryDy=0;entryPerimeter=0;" parent="1" target="mw7v7OqiFIPlVH7VP6Rh-44" edge="1">
          <mxGeometry width="50" height="50" relative="1" as="geometry">
            <mxPoint x="575" y="599" as="sourcePoint" />
            <mxPoint x="629.8799999999999" y="555.48" as="targetPoint" />
          </mxGeometry>
        </mxCell>
        <mxCell id="SJ0lM-k238RFthhAqbpE-66" value="" style="endArrow=none;html=1;startArrow=oval;startFill=0;endSize=10;startSize=10;entryX=0.101;entryY=0.997;entryDx=0;entryDy=0;entryPerimeter=0;" parent="1" target="mw7v7OqiFIPlVH7VP6Rh-44" edge="1">
          <mxGeometry width="50" height="50" relative="1" as="geometry">
            <mxPoint x="614" y="629" as="sourcePoint" />
            <mxPoint x="620" y="615" as="targetPoint" />
          </mxGeometry>
        </mxCell>
        <mxCell id="SJ0lM-k238RFthhAqbpE-67" value="" style="endArrow=none;html=1;startArrow=oval;startFill=0;endSize=10;startSize=10;entryX=1;entryY=0.9;entryDx=0;entryDy=0;entryPerimeter=0;" parent="1" target="mw7v7OqiFIPlVH7VP6Rh-44" edge="1">
          <mxGeometry width="50" height="50" relative="1" as="geometry">
            <mxPoint x="750" y="599" as="sourcePoint" />
            <mxPoint x="624.1200000000001" y="614.8199999999999" as="targetPoint" />
          </mxGeometry>
        </mxCell>
        <mxCell id="SJ0lM-k238RFthhAqbpE-69" value="" style="endArrow=oval;html=1;startSize=10;endSize=10;curved=1;endFill=1;" parent="1" edge="1">
          <mxGeometry width="50" height="50" relative="1" as="geometry">
            <mxPoint x="484" y="366" as="sourcePoint" />
            <mxPoint x="734" y="271" as="targetPoint" />
            <Array as="points">
              <mxPoint x="484" y="264" />
              <mxPoint x="704" y="328" />
            </Array>
          </mxGeometry>
        </mxCell>
        <mxCell id="SJ0lM-k238RFthhAqbpE-72" value="" style="endArrow=none;html=1;startSize=10;endSize=10;curved=1;endFill=0;" parent="1" edge="1">
          <mxGeometry width="50" height="50" relative="1" as="geometry">
            <mxPoint x="1146" y="364" as="sourcePoint" />
            <mxPoint x="1323" y="463" as="targetPoint" />
            <Array as="points">
              <mxPoint x="1195" y="266" />
              <mxPoint x="1339" y="328" />
              <mxPoint x="1392" y="463" />
            </Array>
          </mxGeometry>
        </mxCell>
        <mxCell id="SJ0lM-k238RFthhAqbpE-74" value="" style="endArrow=none;html=1;startSize=10;endSize=10;curved=1;endFill=0;" parent="1" edge="1">
          <mxGeometry width="50" height="50" relative="1" as="geometry">
            <mxPoint x="1226" y="675" as="sourcePoint" />
            <mxPoint x="1324" y="498" as="targetPoint" />
            <Array as="points">
              <mxPoint x="1338" y="675" />
              <mxPoint x="1405" y="503" />
            </Array>
          </mxGeometry>
        </mxCell>
        <mxCell id="SJ0lM-k238RFthhAqbpE-75" value="" style="endArrow=oval;html=1;startArrow=none;startFill=0;endSize=10;startSize=10;endFill=1;" parent="1" edge="1">
          <mxGeometry width="50" height="50" relative="1" as="geometry">
            <mxPoint x="1334" y="442" as="sourcePoint" />
            <mxPoint x="1334" y="513" as="targetPoint" />
          </mxGeometry>
        </mxCell>
        <mxCell id="SJ0lM-k238RFthhAqbpE-77" value="" style="endArrow=none;html=1;startSize=10;endSize=10;curved=1;" parent="1" edge="1">
          <mxGeometry width="50" height="50" relative="1" as="geometry">
            <mxPoint x="738" y="388" as="sourcePoint" />
            <mxPoint x="946" y="455" as="targetPoint" />
            <Array as="points">
              <mxPoint x="960" y="380" />
              <mxPoint x="983" y="455" />
            </Array>
          </mxGeometry>
        </mxCell>
        <mxCell id="SJ0lM-k238RFthhAqbpE-78" value="" style="endArrow=none;html=1;startSize=10;endSize=10;curved=1;" parent="1" edge="1">
          <mxGeometry width="50" height="50" relative="1" as="geometry">
            <mxPoint x="804" y="563" as="sourcePoint" />
            <mxPoint x="947" y="469" as="targetPoint" />
            <Array as="points">
              <mxPoint x="816" y="644" />
              <mxPoint x="981" y="591" />
              <mxPoint x="994" y="469" />
            </Array>
          </mxGeometry>
        </mxCell>
        <mxCell id="SJ0lM-k238RFthhAqbpE-79" value="" style="endArrow=oval;html=1;startArrow=none;startFill=0;endSize=10;startSize=10;endFill=1;" parent="1" edge="1">
          <mxGeometry width="50" height="50" relative="1" as="geometry">
            <mxPoint x="956" y="445" as="sourcePoint" />
            <mxPoint x="956" y="490" as="targetPoint" />
          </mxGeometry>
        </mxCell>
        <mxCell id="SJ0lM-k238RFthhAqbpE-80" value="Codice Fiscale" style="text;html=1;align=center;verticalAlign=middle;resizable=0;points=[];autosize=1;strokeColor=none;" parent="1" vertex="1">
          <mxGeometry x="65" y="900" width="89" height="18" as="geometry" />
        </mxCell>
        <mxCell id="SJ0lM-k238RFthhAqbpE-81" value="Nome" style="text;html=1;align=center;verticalAlign=middle;resizable=0;points=[];autosize=1;strokeColor=none;" parent="1" vertex="1">
          <mxGeometry x="112" y="921" width="42" height="18" as="geometry" />
        </mxCell>
        <mxCell id="SJ0lM-k238RFthhAqbpE-82" value="Cognome" style="text;html=1;align=center;verticalAlign=middle;resizable=0;points=[];autosize=1;strokeColor=none;" parent="1" vertex="1">
          <mxGeometry x="92" y="939" width="62" height="18" as="geometry" />
        </mxCell>
        <mxCell id="SJ0lM-k238RFthhAqbpE-83" value="Partita IVA" style="text;html=1;align=center;verticalAlign=middle;resizable=0;points=[];autosize=1;strokeColor=none;" parent="1" vertex="1">
          <mxGeometry x="518" y="900" width="67" height="18" as="geometry" />
        </mxCell>
        <mxCell id="SJ0lM-k238RFthhAqbpE-84" value="Denominazione" style="text;html=1;align=center;verticalAlign=middle;resizable=0;points=[];autosize=1;strokeColor=none;" parent="1" vertex="1">
          <mxGeometry x="519.5" y="939" width="93" height="18" as="geometry" />
        </mxCell>
        <mxCell id="SJ0lM-k238RFthhAqbpE-85" value="CodCliente" style="text;html=1;align=center;verticalAlign=middle;resizable=0;points=[];autosize=1;strokeColor=none;" parent="1" vertex="1">
          <mxGeometry x="164" y="740" width="69" height="18" as="geometry" />
        </mxCell>
        <mxCell id="SJ0lM-k238RFthhAqbpE-86" value="Telefono" style="text;html=1;align=center;verticalAlign=middle;resizable=0;points=[];autosize=1;strokeColor=none;" parent="1" vertex="1">
          <mxGeometry x="177" y="778" width="55" height="18" as="geometry" />
        </mxCell>
        <mxCell id="SJ0lM-k238RFthhAqbpE-87" value="Regione" style="text;html=1;align=center;verticalAlign=middle;resizable=0;points=[];autosize=1;strokeColor=none;" parent="1" vertex="1">
          <mxGeometry x="188.5" y="262" width="55" height="18" as="geometry" />
        </mxCell>
        <mxCell id="SJ0lM-k238RFthhAqbpE-88" value="Città" style="text;html=1;align=center;verticalAlign=middle;resizable=0;points=[];autosize=1;strokeColor=none;" parent="1" vertex="1">
          <mxGeometry x="149" y="282" width="35" height="18" as="geometry" />
        </mxCell>
        <mxCell id="SJ0lM-k238RFthhAqbpE-89" value="Via" style="text;html=1;align=center;verticalAlign=middle;resizable=0;points=[];autosize=1;strokeColor=none;" parent="1" vertex="1">
          <mxGeometry x="109.5" y="331" width="27" height="18" as="geometry" />
        </mxCell>
        <mxCell id="SJ0lM-k238RFthhAqbpE-90" value="Numero" style="text;html=1;align=center;verticalAlign=middle;resizable=0;points=[];autosize=1;strokeColor=none;" parent="1" vertex="1">
          <mxGeometry x="115" y="374" width="53" height="18" as="geometry" />
        </mxCell>
        <mxCell id="SJ0lM-k238RFthhAqbpE-91" value="Nota" style="text;html=1;align=center;verticalAlign=middle;resizable=0;points=[];autosize=1;strokeColor=none;" parent="1" vertex="1">
          <mxGeometry x="198.5" y="398" width="35" height="18" as="geometry" />
        </mxCell>
        <mxCell id="SJ0lM-k238RFthhAqbpE-92" value="CodImpianto" style="text;html=1;align=center;verticalAlign=middle;resizable=0;points=[];autosize=1;strokeColor=none;" parent="1" vertex="1">
          <mxGeometry x="383" y="260" width="78" height="18" as="geometry" />
        </mxCell>
        <mxCell id="SJ0lM-k238RFthhAqbpE-94" value="Data&lt;br&gt;Inizio" style="text;html=1;align=center;verticalAlign=middle;resizable=0;points=[];autosize=1;strokeColor=none;" parent="1" vertex="1">
          <mxGeometry x="276" y="231" width="38" height="31" as="geometry" />
        </mxCell>
        <mxCell id="SJ0lM-k238RFthhAqbpE-95" value="Data&lt;br&gt;Fine" style="text;html=1;align=center;verticalAlign=middle;resizable=0;points=[];autosize=1;strokeColor=none;" parent="1" vertex="1">
          <mxGeometry x="318" y="231" width="35" height="31" as="geometry" />
        </mxCell>
        <mxCell id="SJ0lM-k238RFthhAqbpE-96" value="(0,1)" style="text;html=1;align=center;verticalAlign=middle;resizable=0;points=[];autosize=1;strokeColor=none;" parent="1" vertex="1">
          <mxGeometry x="331" y="282" width="35" height="18" as="geometry" />
        </mxCell>
        <mxCell id="SJ0lM-k238RFthhAqbpE-97" value="Data" style="text;html=1;align=center;verticalAlign=middle;resizable=0;points=[];autosize=1;strokeColor=none;" parent="1" vertex="1">
          <mxGeometry x="673" y="256" width="35" height="18" as="geometry" />
        </mxCell>
        <mxCell id="SJ0lM-k238RFthhAqbpE-98" value="CodTipologia" style="text;html=1;align=center;verticalAlign=middle;resizable=0;points=[];autosize=1;strokeColor=none;" parent="1" vertex="1">
          <mxGeometry x="1221" y="216" width="80" height="18" as="geometry" />
        </mxCell>
        <mxCell id="SJ0lM-k238RFthhAqbpE-99" value="Nome" style="text;html=1;align=center;verticalAlign=middle;resizable=0;points=[];autosize=1;strokeColor=none;" parent="1" vertex="1">
          <mxGeometry x="1221" y="246" width="42" height="18" as="geometry" />
        </mxCell>
        <mxCell id="SJ0lM-k238RFthhAqbpE-100" value="Descrizione" style="text;html=1;align=center;verticalAlign=middle;resizable=0;points=[];autosize=1;strokeColor=none;" parent="1" vertex="1">
          <mxGeometry x="1092.5" y="154" width="73" height="18" as="geometry" />
        </mxCell>
        <mxCell id="SJ0lM-k238RFthhAqbpE-101" value="CodPreventivo" style="text;html=1;align=center;verticalAlign=middle;resizable=0;points=[];autosize=1;strokeColor=none;" parent="1" vertex="1">
          <mxGeometry x="708" y="832" width="89" height="18" as="geometry" />
        </mxCell>
        <mxCell id="SJ0lM-k238RFthhAqbpE-102" value="Data" style="text;html=1;align=center;verticalAlign=middle;resizable=0;points=[];autosize=1;strokeColor=none;" parent="1" vertex="1">
          <mxGeometry x="802" y="832" width="35" height="18" as="geometry" />
        </mxCell>
        <mxCell id="SJ0lM-k238RFthhAqbpE-103" value="Capitale Socio" style="text;html=1;align=center;verticalAlign=middle;resizable=0;points=[];autosize=1;strokeColor=none;" parent="1" vertex="1">
          <mxGeometry x="1045" y="997" width="88" height="18" as="geometry" />
        </mxCell>
        <mxCell id="SJ0lM-k238RFthhAqbpE-105" value="Data Fine" style="text;html=1;align=center;verticalAlign=middle;resizable=0;points=[];autosize=1;strokeColor=none;" parent="1" vertex="1">
          <mxGeometry x="1218" y="997" width="62" height="18" as="geometry" />
        </mxCell>
        <mxCell id="SJ0lM-k238RFthhAqbpE-106" value="Data Fine" style="text;html=1;align=center;verticalAlign=middle;resizable=0;points=[];autosize=1;strokeColor=none;" parent="1" vertex="1">
          <mxGeometry x="1378" y="997" width="62" height="18" as="geometry" />
        </mxCell>
        <mxCell id="SJ0lM-k238RFthhAqbpE-107" value="(0,1)" style="text;html=1;align=center;verticalAlign=middle;resizable=0;points=[];autosize=1;strokeColor=none;" parent="1" vertex="1">
          <mxGeometry x="1245" y="963" width="35" height="18" as="geometry" />
        </mxCell>
        <mxCell id="SJ0lM-k238RFthhAqbpE-109" value="Codice Fiscale" style="text;html=1;align=center;verticalAlign=middle;resizable=0;points=[];autosize=1;strokeColor=none;" parent="1" vertex="1">
          <mxGeometry x="1341" y="738" width="89" height="18" as="geometry" />
        </mxCell>
        <mxCell id="SJ0lM-k238RFthhAqbpE-110" value="Nome" style="text;html=1;align=center;verticalAlign=middle;resizable=0;points=[];autosize=1;strokeColor=none;" parent="1" vertex="1">
          <mxGeometry x="1341" y="760" width="42" height="18" as="geometry" />
        </mxCell>
        <mxCell id="SJ0lM-k238RFthhAqbpE-111" value="Cognome" style="text;html=1;align=center;verticalAlign=middle;resizable=0;points=[];autosize=1;strokeColor=none;" parent="1" vertex="1">
          <mxGeometry x="1341" y="782" width="62" height="18" as="geometry" />
        </mxCell>
        <mxCell id="SJ0lM-k238RFthhAqbpE-112" value="Data Inizio" style="text;html=1;align=center;verticalAlign=middle;resizable=0;points=[];autosize=1;strokeColor=none;" parent="1" vertex="1">
          <mxGeometry x="1159" y="693" width="67" height="18" as="geometry" />
        </mxCell>
        <mxCell id="SJ0lM-k238RFthhAqbpE-113" value="Stipendio" style="text;html=1;align=center;verticalAlign=middle;resizable=0;points=[];autosize=1;strokeColor=none;" parent="1" vertex="1">
          <mxGeometry x="1145" y="814" width="60" height="18" as="geometry" />
        </mxCell>
        <mxCell id="SJ0lM-k238RFthhAqbpE-114" value="Ora Inizio" style="text;html=1;align=center;verticalAlign=middle;resizable=0;points=[];autosize=1;strokeColor=none;" parent="1" vertex="1">
          <mxGeometry x="1362" y="471" width="61" height="18" as="geometry" />
        </mxCell>
        <mxCell id="SJ0lM-k238RFthhAqbpE-115" value="Ora Fine" style="text;html=1;align=center;verticalAlign=middle;resizable=0;points=[];autosize=1;strokeColor=none;" parent="1" vertex="1">
          <mxGeometry x="1169" y="392" width="57" height="18" as="geometry" />
        </mxCell>
        <mxCell id="SJ0lM-k238RFthhAqbpE-116" value="Nota" style="text;html=1;align=center;verticalAlign=middle;resizable=0;points=[];autosize=1;strokeColor=none;" parent="1" vertex="1">
          <mxGeometry x="1180" y="547" width="35" height="18" as="geometry" />
        </mxCell>
        <mxCell id="SJ0lM-k238RFthhAqbpE-117" value="KM" style="text;html=1;align=center;verticalAlign=middle;resizable=0;points=[];autosize=1;strokeColor=none;" parent="1" vertex="1">
          <mxGeometry x="1141" y="576" width="28" height="18" as="geometry" />
        </mxCell>
        <mxCell id="SJ0lM-k238RFthhAqbpE-118" value="Targa" style="text;html=1;align=center;verticalAlign=middle;resizable=0;points=[];autosize=1;strokeColor=none;" parent="1" vertex="1">
          <mxGeometry x="986" y="672" width="40" height="18" as="geometry" />
        </mxCell>
        <mxCell id="SJ0lM-k238RFthhAqbpE-119" value="Marca" style="text;html=1;align=center;verticalAlign=middle;resizable=0;points=[];autosize=1;strokeColor=none;" parent="1" vertex="1">
          <mxGeometry x="1027" y="672" width="44" height="18" as="geometry" />
        </mxCell>
        <mxCell id="SJ0lM-k238RFthhAqbpE-120" value="Posti" style="text;html=1;align=center;verticalAlign=middle;resizable=0;points=[];autosize=1;strokeColor=none;" parent="1" vertex="1">
          <mxGeometry x="1070.5" y="672" width="37" height="18" as="geometry" />
        </mxCell>
        <mxCell id="SJ0lM-k238RFthhAqbpE-121" value="Nome" style="text;html=1;align=center;verticalAlign=middle;resizable=0;points=[];autosize=1;strokeColor=none;" parent="1" vertex="1">
          <mxGeometry x="430" y="378" width="42" height="18" as="geometry" />
        </mxCell>
        <mxCell id="SJ0lM-k238RFthhAqbpE-122" value="Telefono" style="text;html=1;align=center;verticalAlign=middle;resizable=0;points=[];autosize=1;strokeColor=none;" parent="1" vertex="1">
          <mxGeometry x="484" y="378" width="55" height="18" as="geometry" />
        </mxCell>
        <mxCell id="SJ0lM-k238RFthhAqbpE-123" value="CodFornitore" style="text;html=1;align=center;verticalAlign=middle;resizable=0;points=[];autosize=1;strokeColor=none;" parent="1" vertex="1">
          <mxGeometry x="571" y="434" width="80" height="18" as="geometry" />
        </mxCell>
        <mxCell id="SJ0lM-k238RFthhAqbpE-124" value="Quantità" style="text;html=1;align=center;verticalAlign=middle;resizable=0;points=[];autosize=1;strokeColor=none;" parent="1" vertex="1">
          <mxGeometry x="858" y="649" width="55" height="18" as="geometry" />
        </mxCell>
        <mxCell id="SJ0lM-k238RFthhAqbpE-125" value="Nota" style="text;html=1;align=center;verticalAlign=middle;resizable=0;points=[];autosize=1;strokeColor=none;" parent="1" vertex="1">
          <mxGeometry x="858.5" y="675" width="35" height="18" as="geometry" />
        </mxCell>
        <mxCell id="SJ0lM-k238RFthhAqbpE-126" value="CodMateriale" style="text;html=1;align=center;verticalAlign=middle;resizable=0;points=[];autosize=1;strokeColor=none;" parent="1" vertex="1">
          <mxGeometry x="571" y="497" width="82" height="18" as="geometry" />
        </mxCell>
        <mxCell id="SJ0lM-k238RFthhAqbpE-127" value="Nome" style="text;html=1;align=center;verticalAlign=middle;resizable=0;points=[];autosize=1;strokeColor=none;" parent="1" vertex="1">
          <mxGeometry x="663" y="510" width="42" height="18" as="geometry" />
        </mxCell>
        <mxCell id="SJ0lM-k238RFthhAqbpE-128" value="Quantità" style="text;html=1;align=center;verticalAlign=middle;resizable=0;points=[];autosize=1;strokeColor=none;" parent="1" vertex="1">
          <mxGeometry x="538.5" y="602" width="55" height="18" as="geometry" />
        </mxCell>
        <mxCell id="SJ0lM-k238RFthhAqbpE-129" value="Prezzo" style="text;html=1;align=center;verticalAlign=middle;resizable=0;points=[];autosize=1;strokeColor=none;" parent="1" vertex="1">
          <mxGeometry x="588.5" y="634" width="47" height="18" as="geometry" />
        </mxCell>
        <mxCell id="SJ0lM-k238RFthhAqbpE-130" value="Descrizione" style="text;html=1;align=center;verticalAlign=middle;resizable=0;points=[];autosize=1;strokeColor=none;" parent="1" vertex="1">
          <mxGeometry x="714" y="602" width="73" height="18" as="geometry" />
        </mxCell>
        <mxCell id="gyQU3uvNIS6ujwAqqLgp-2" value="(0,1)" style="text;html=1;align=center;verticalAlign=middle;resizable=0;points=[];autosize=1;strokeColor=none;" parent="1" vertex="1">
          <mxGeometry x="211" y="362" width="35" height="18" as="geometry" />
        </mxCell>
        <mxCell id="gyQU3uvNIS6ujwAqqLgp-3" value="(0,1)" style="text;html=1;align=center;verticalAlign=middle;resizable=0;points=[];autosize=1;strokeColor=none;" parent="1" vertex="1">
          <mxGeometry x="839" y="406" width="35" height="18" as="geometry" />
        </mxCell>
        <mxCell id="gyQU3uvNIS6ujwAqqLgp-4" value="(0,1)" style="text;html=1;align=center;verticalAlign=middle;resizable=0;points=[];autosize=1;strokeColor=none;" parent="1" vertex="1">
          <mxGeometry x="1165.5" y="520" width="35" height="18" as="geometry" />
        </mxCell>
        <mxCell id="gyQU3uvNIS6ujwAqqLgp-6" value="(0,1)" style="text;html=1;align=center;verticalAlign=middle;resizable=0;points=[];autosize=1;strokeColor=none;" parent="1" vertex="1">
          <mxGeometry x="823.5" y="680" width="35" height="18" as="geometry" />
        </mxCell>
      </root>
    </mxGraphModel>
  </diagram>
</mxfile>
